<?xml version="1.0" encoding="UTF-8"?>
<svg width="686px" height="348px" viewBox="0 0 686 348" version="1.1" xmlns="http://www.w3.org/2000/svg" xmlns:xlink="http://www.w3.org/1999/xlink">
    <!-- Generator: Sketch 58 (84663) - https://sketch.com -->
    <title>nice-rotation</title>
    <desc>Created with Sketch.</desc>
    <g id="nice-rotation" stroke="none" stroke-width="1" fill="none" fill-rule="evenodd">
        <g id="Group-Copy" transform="translate(24.000000, 75.000000)" fill-rule="nonzero">
            <rect id="Rectangle" fill="#FFE5E5" x="0" y="0" width="132" height="141"></rect>
            <rect id="Rectangle" fill="#DF9D2B" x="69" y="18" width="52" height="52" rx="1"></rect>
            <rect id="Rectangle-Copy-3" fill="#24D1C2" x="69" y="76" width="52" height="52" rx="26"></rect>
            <polygon id="Path-3" fill="#5F52D8" points="14 127.5 40 75.5 66 127.5"></polygon>
        </g>
        <g id="Group-Copy-3" transform="translate(500.000000, 116.000000)" fill-rule="nonzero">
            <rect id="Rectangle" fill="#FFE5E5" x="0" y="0" width="107" height="107"></rect>
            <rect id="Rectangle" fill="#DF9D2B" x="56" y="12" width="42" height="42" rx="1"></rect>
            <rect id="Rectangle-Copy-3" fill="#24D1C2" x="56" y="59" width="42" height="42" rx="21"></rect>
            <polygon id="Path-3" fill="#5F52D8" points="12 100 33 58 54 100"></polygon>
        </g>
        <g id="Group" transform="translate(227.000000, 88.000000)" fill-rule="nonzero">
            <g id="Group-Copy-2" transform="translate(21.000000, 1.000000)">
                <rect id="Rectangle" fill="#FFE5E5" x="0" y="0" width="124" height="132"></rect>
                <rect id="Rectangle" fill="#DF9D2B" x="65" y="17" width="49" height="49" rx="1"></rect>
                <rect id="Rectangle-Copy-3" fill="#24D1C2" x="65" y="71" width="49" height="49" rx="24.5"></rect>
                <polygon id="Path-3" fill="#5F52D8" points="13 120 37.5 71 62 120"></polygon>
            </g>
            <rect id="Rectangle-Copy-6" stroke="#979797" x="0.5" y="0.5" width="172" height="172" rx="1"></rect>
            <rect id="Rectangle-Copy-7" fill="#000000" x="34" y="156" width="107" height="2" rx="1"></rect>
        </g>
        <rect id="Rectangle-Copy-4" stroke="#979797" fill-rule="nonzero" x="24.5" y="75.5" width="131" height="213" rx="1"></rect>
        <rect id="Rectangle-Copy-5" stroke="#979797" fill-rule="nonzero" transform="translate(553.000000, 182.000000) rotate(-270.000000) translate(-553.000000, -182.000000) " x="487.5" y="75.5" width="131" height="213" rx="1"></rect>
        <rect id="Rectangle-Copy-4" fill="#000000" fill-rule="nonzero" x="36" y="274" width="107" height="2" rx="1"></rect>
        <rect id="Rectangle-Copy-8" fill="#000000" fill-rule="nonzero" x="500" y="232" width="107" height="2" rx="1"></rect>
    </g>
</svg>